<svg id="visual" viewBox="0 0 900 600" width="900" height="600" xmlns="http://www.w3.org/2000/svg" xmlns:xlink="http://www.w3.org/1999/xlink" version="1.1"><path d="M0 121L25 120C50 119 100 117 150 119C200 121 250 127 300 152C350 177 400 221 450 226C500 231 550 197 600 194C650 191 700 219 750 219C800 219 850 191 875 177L900 163L900 0L875 0C850 0 800 0 750 0C700 0 650 0 600 0C550 0 500 0 450 0C400 0 350 0 300 0C250 0 200 0 150 0C100 0 50 0 25 0L0 0Z" fill="#635f57"></path><path d="M0 409L25 393C50 377 100 345 150 329C200 313 250 313 300 326C350 339 400 365 450 364C500 363 550 335 600 333C650 331 700 355 750 353C800 351 850 323 875 309L900 295L900 161L875 175C850 189 800 217 750 217C700 217 650 189 600 192C550 195 500 229 450 224C400 219 350 175 300 150C250 125 200 119 150 117C100 115 50 117 25 118L0 119Z" fill="#757067"></path><path d="M0 493L25 485C50 477 100 461 150 442C200 423 250 401 300 404C350 407 400 435 450 432C500 429 550 395 600 397C650 399 700 437 750 441C800 445 850 415 875 400L900 385L900 293L875 307C850 321 800 349 750 351C700 353 650 329 600 331C550 333 500 361 450 362C400 363 350 337 300 324C250 311 200 311 150 327C100 343 50 375 25 391L0 407Z" fill="#888277"></path><path d="M0 565L25 563C50 561 100 557 150 547C200 537 250 521 300 516C350 511 400 517 450 518C500 519 550 515 600 521C650 527 700 543 750 545C800 547 850 535 875 529L900 523L900 383L875 398C850 413 800 443 750 439C700 435 650 397 600 395C550 393 500 427 450 430C400 433 350 405 300 402C250 399 200 421 150 440C100 459 50 475 25 483L0 491Z" fill="#99948b"></path><path d="M0 601L25 601C50 601 100 601 150 601C200 601 250 601 300 601C350 601 400 601 450 601C500 601 550 601 600 601C650 601 700 601 750 601C800 601 850 601 875 601L900 601L900 521L875 527C850 533 800 545 750 543C700 541 650 525 600 519C550 513 500 517 450 516C400 515 350 509 300 514C250 519 200 535 150 545C100 555 50 559 25 561L0 563Z" fill="#aaa79f"></path></svg>